<svg width="23" height="22" viewBox="0 0 23 22" fill="none" xmlns="http://www.w3.org/2000/svg">
<g clip-path="url(#clip0_1653_281)">
<path fill-rule="evenodd" clip-rule="evenodd" d="M2.99349 0.542969H20.1587C21.3437 0.542969 22.3044 1.50361 22.3044 2.68862V19.8538C22.3044 21.0389 21.3437 21.9995 20.1587 21.9995H2.99349C1.80848 21.9995 0.847839 21.0389 0.847839 19.8538V2.68862C0.847839 1.50361 1.80848 0.542969 2.99349 0.542969ZM2.99327 2.68865V19.8539H20.1585V2.68865H2.99327ZM10.6458 11.276H12.6487V17.7082H14.7944V11.276H16.9212V9.13034H14.7944V8.0528C14.7944 7.46029 15.2747 6.97997 15.8672 6.97997H16.94V4.83432H15.8672C14.0897 4.83432 12.6487 6.27528 12.6487 8.0528V9.13034H10.6458V11.276Z" fill="white"/>
</g>
<defs>
<clipPath id="clip0_1653_281">
<rect width="21.4565" height="21.4565" fill="white" transform="translate(0.847839 0.542969)"/>
</clipPath>
</defs>
</svg>
