<svg width="22" height="22" viewBox="0 0 22 22" fill="none" xmlns="http://www.w3.org/2000/svg">
<g clip-path="url(#clip0_1653_278)">
<path fill-rule="evenodd" clip-rule="evenodd" d="M14.9355 0.75293H6.52119C3.03586 0.75293 0.210449 3.57834 0.210449 7.06367V15.478C0.210449 18.9633 3.03586 21.7887 6.52119 21.7887H14.9355C18.4208 21.7887 21.2463 18.9633 21.2463 15.478V7.06367C21.2463 3.57834 18.4208 0.75293 14.9355 0.75293ZM2.31403 7.06367C2.31403 4.74012 4.19764 2.85651 6.52119 2.85651H14.9355C17.259 2.85651 19.1427 4.74012 19.1427 7.06367V15.478C19.1427 17.8015 17.259 19.6852 14.9355 19.6852H6.52119C4.19764 19.6852 2.31403 17.8015 2.31403 15.478V7.06367ZM10.7284 16.5298C7.82392 16.5298 5.4694 14.1752 5.4694 11.2708C5.4694 8.3664 7.82392 6.01188 10.7284 6.01188C13.6328 6.01188 15.9873 8.3664 15.9873 11.2708C15.9873 14.1752 13.6328 16.5298 10.7284 16.5298ZM10.7284 14.4262C12.4711 14.4262 13.8837 13.0135 13.8837 11.2708C13.8837 9.52812 12.4711 8.11546 10.7284 8.11546C8.98564 8.11546 7.57298 9.52812 7.57298 11.2708C7.57298 13.0135 8.98564 14.4262 10.7284 14.4262ZM17.0391 6.01188C17.0391 6.59276 16.5682 7.06367 15.9873 7.06367C15.4064 7.06367 14.9355 6.59276 14.9355 6.01188C14.9355 5.431 15.4064 4.96009 15.9873 4.96009C16.5682 4.96009 17.0391 5.431 17.0391 6.01188Z" fill="white"/>
</g>
<defs>
<clipPath id="clip0_1653_278">
<rect width="21.4565" height="21.4565" fill="white" transform="translate(0 0.542969)"/>
</clipPath>
</defs>
</svg>
