<svg width="22" height="22" viewBox="0 0 22 22" fill="none" xmlns="http://www.w3.org/2000/svg">
<g clip-path="url(#clip0_1653_290)">
<path fill-rule="evenodd" clip-rule="evenodd" d="M2.68911 0.542969H19.8543C21.0393 0.542969 22 1.50361 22 2.68862V19.8538C22 21.0389 21.0393 21.9995 19.8543 21.9995H2.68911C1.5041 21.9995 0.543457 21.0389 0.543457 19.8538V2.68862C0.543457 1.50361 1.5041 0.542969 2.68911 0.542969ZM2.68917 2.68863V19.8538H19.8544V2.68863H2.68917ZM12.3445 8.05276C11.7891 8.05276 11.2022 8.22254 10.684 8.53784L10.1989 8.05276H9.12605V15.5625H11.2717V11.2712C11.2717 10.6536 11.9089 10.1984 12.3445 10.1984H13.4174C13.853 10.1984 14.4902 10.6536 14.4902 11.2712V15.5625H16.6358V11.2712C16.6358 9.28348 14.9128 8.05276 13.4174 8.05276H12.3445ZM6.98043 6.97994C7.57294 6.97994 8.05326 6.49962 8.05326 5.90711C8.05326 5.3146 7.57294 4.83428 6.98043 4.83428C6.38793 4.83428 5.90761 5.3146 5.90761 5.90711C5.90761 6.49962 6.38793 6.97994 6.98043 6.97994ZM5.90761 8.05276V15.5625H8.05326V8.05276H5.90761Z" fill="white"/>
</g>
<defs>
<clipPath id="clip0_1653_290">
<rect width="21.4565" height="21.4565" fill="white" transform="translate(0.543457 0.542969)"/>
</clipPath>
</defs>
</svg>
