<svg width="23" height="22" viewBox="0 0 23 22" fill="none" xmlns="http://www.w3.org/2000/svg">
<path fill-rule="evenodd" clip-rule="evenodd" d="M20.483 3.8295L21.8884 3.99362L21.2567 5.25967C20.9486 5.87707 20.6403 6.49446 20.3316 7.11186C20.295 7.24263 20.2306 7.35726 20.1356 7.50651C20.0957 7.56887 19.9599 7.76726 19.9536 7.77677C19.9177 7.83055 19.8912 7.87297 19.8721 7.90695V10.2796C19.8721 16.351 13.9964 20.2091 8.44756 20.2091C7.31212 20.2091 6.44945 20.1548 5.46164 19.9392C3.83601 19.5844 2.62622 18.8793 2.07262 17.6468L1.50267 16.378L2.88779 16.2506C4.14083 16.1353 5.22724 15.8966 6.06157 15.577C3.77106 15.2086 2.48748 14.2027 2.48748 12.3134V11.32H3.48083C3.69908 11.32 3.89589 11.3024 4.07182 11.2698C2.35278 10.2419 1.49175 8.59317 1.49175 6.30619C1.49157 6.20872 1.49157 6.20871 1.49098 6.10449C1.48452 4.95175 1.54644 4.33581 1.86201 3.54969C2.06425 3.04588 2.35658 2.57947 2.75002 2.15212L3.49962 1.33789L4.2284 2.17079C6.63011 4.91558 9.00425 6.58078 11.4283 6.7822C11.4386 4.24947 13.3527 2.33276 15.8985 2.33276C17.0854 2.33276 18.1619 2.78324 19.0079 3.59552C19.4709 3.69067 19.9627 3.76873 20.483 3.8295ZM18.2868 5.47226L17.9824 5.40331L17.7721 5.17253C17.2636 4.61453 16.6252 4.31947 15.8985 4.31947C14.4453 4.31947 13.4149 5.35494 13.4149 6.80287C13.4149 7.0395 13.4088 7.18819 13.3793 7.38361C13.2617 8.16341 12.8244 8.78958 11.9249 8.78958C8.94675 8.78958 6.26001 7.19415 3.64006 4.46923C3.50499 4.87982 3.47323 5.30185 3.47766 6.09336C3.47826 6.19922 3.47826 6.19922 3.47847 6.30619C3.47847 8.34059 4.30267 9.45342 6.25416 10.0737L6.94661 10.2938V11.0203C6.94661 11.9015 6.11186 12.7308 4.89049 13.1023C5.45037 13.5272 6.59541 13.7563 8.44791 13.7563H9.44128V14.7497C9.44128 16.173 7.80593 17.2873 5.33558 17.8692C6.14122 18.116 7.21393 18.2224 8.44756 18.2224C13.0314 18.2224 17.8854 15.0351 17.8854 10.2796V7.79622C17.8854 7.5044 17.97 7.25108 18.1105 6.9877C18.1655 6.88473 18.226 6.78655 18.3006 6.67457C18.3147 6.6535 18.3669 6.57712 18.4083 6.51605L18.487 6.35861C18.6146 6.10347 18.7421 5.84834 18.8695 5.59321C18.6715 5.55568 18.4773 5.51537 18.2868 5.47226Z" fill="white"/>
</svg>
